PathFileType	4	(X/Y/Z)	s05c0401.trc
DataRate	CameraRate	NumFrames	NumMarkers	Units	OrigDataRate	OrigDataStartFrame	OrigNumFrames
200	200	4	50	mm	200	1750	2000
Frame#	Time	racr			lacr			c7			jug			rlel			rdr			llel			ldr			s2			lic			ric			lasi			rasi			rpsi			lpsi			rgt			lgt			rth1			rth2			rth3			rth4			rlfc			rmfc			rsh1			rsh2			rsh3			rsh4			rlmal			rmmal			rcal			rtoe			rmt5			lth1			lth2			lth4			lth3			llfc			lmfc			lsh1			lsh2			lsh3			lsh4			llmal			lmmal			lcal			ltoe			lmt5			SBIKE			LBIKE			RBIKE			
		X1	Y1	Z1	X2	Y2	Z2	X3	Y3	Z3	X4	Y4	Z4	X5	Y5	Z5	X6	Y6	Z6	X7	Y7	Z7	X8	Y8	Z8	X9	Y9	Z9	X10	Y10	Z10	X11	Y11	Z11	X12	Y12	Z12	X13	Y13	Z13	X14	Y14	Z14	X15	Y15	Z15	X16	Y16	Z16	X17	Y17	Z17	X18	Y18	Z18	X19	Y19	Z19	X20	Y20	Z20	X21	Y21	Z21	X22	Y22	Z22	X23	Y23	Z23	X24	Y24	Z24	X25	Y25	Z25	X26	Y26	Z26	X27	Y27	Z27	X28	Y28	Z28	X29	Y29	Z29	X30	Y30	Z30	X31	Y31	Z31	X32	Y32	Z32	X33	Y33	Z33	X34	Y34	Z34	X35	Y35	Z35	X36	Y36	Z36	X37	Y37	Z37	X38	Y38	Z38	X39	Y39	Z39	X40	Y40	Z40	X41	Y41	Z41	X42	Y42	Z42	X43	Y43	Z43	X44	Y44	Z44	X45	Y45	Z45	X46	Y46	Z46	X47	Y47	Z47	X48	Y48	Z48	X49	Y49	Z49	X50	Y50	Z50	
1750	8.7500	768.339125	1316.077959	-163.812161	744.518482	1355.785783	-464.017280	742.894624	1422.714477	-319.949552	691.764034	1266.489993	-321.794350	611.127093	1157.784721	48.004185	684.173732	966.066724	-53.638038	546.669678	1161.943602	-611.767850	667.439078	951.173859	-532.186976	149.526595	1240.699847	-340.967236	317.029053	1231.903999	-455.145106	279.354250	1239.996817	-178.847117	346.357134	1168.185660	-416.475724	308.315533	1174.134831	-200.881965	185.769420	1282.534517	-291.909834	201.116155	1281.474144	-378.015719	196.675111	1112.897940	-160.704605	249.041950	1131.313943	-496.357577	256.740002	1006.396904	-135.697673	313.215927	938.165111	-125.831372	328.325879	851.518964	-129.553491	346.894736	954.074673	-130.035915	401.257458	719.961104	-140.102636	397.692659	711.889517	-247.786811	336.546813	629.943166	-113.086701	331.283865	541.502545	-121.087358	286.814753	468.498518	-123.266999	361.929446	534.057042	-143.431373	250.872548	338.828410	-130.414194	272.740554	359.390913	-208.903490	178.399920	320.608220	-176.867065	460.554564	230.539046	-153.876895	353.289435	234.073452	-94.440236	333.006576	1013.331825	-494.185338	401.136028	964.529661	-476.621312	425.205109	985.216652	-455.936155	437.475167	881.478562	-471.077446	487.933419	748.456768	-426.485224	454.811217	747.356979	-321.379184	373.871396	694.671285	-460.217840	309.416535	636.768651	-450.282380	223.573656	615.659445	-457.648643	323.610477	611.378491	-424.335180	122.172836	556.170421	-458.775291	152.693917	555.365618	-378.105481	63.418994	596.638201	-418.998052	149.744931	316.217187	-389.970967	90.086976	400.527692	-464.211020	-219.385665	912.734304	-273.810387	-53.361486	79.486391	-474.947779	-53.362627	79.212536	-77.288370	
1751	8.7550	767.716337	1319.061277	-164.721366	744.459964	1356.575292	-465.617641	742.458149	1424.124728	-321.439680	691.949838	1268.044409	-322.758691	611.770158	1158.841731	46.843880	684.447500	966.091934	-53.216279	546.456645	1161.595845	-612.331543	667.481753	951.151259	-532.282652	149.492876	1239.265084	-339.614004	316.349598	1232.221663	-454.229518	280.703642	1238.054742	-177.691284	346.146047	1168.504377	-415.861458	309.388365	1172.320182	-200.173778	185.871673	1280.851842	-290.109154	200.655574	1280.985094	-376.620068	196.742709	1110.106142	-160.738405	249.463345	1132.057871	-495.958170	254.477661	1002.206112	-136.024751	308.941200	932.377451	-126.585352	321.567397	845.302847	-130.971304	342.993960	947.180256	-130.512693	391.336967	712.470615	-142.027833	386.950385	704.201841	-249.373328	328.044460	622.305201	-114.249348	323.443536	534.005287	-121.955682	279.498475	460.504898	-123.574403	353.946905	526.565788	-144.441679	245.481353	330.306498	-130.369545	267.344446	350.360507	-208.983698	173.114760	312.444524	-176.710832	454.797607	220.581754	-153.870826	347.541841	224.906657	-94.418000	335.255463	1015.660789	-494.345238	404.610207	968.450053	-477.257622	428.210683	989.657959	-456.504650	442.628212	886.125078	-471.952740	495.672997	754.244891	-427.404690	462.660567	753.029692	-322.124490	381.407240	701.370857	-460.228764	316.446915	644.138064	-450.210616	230.225746	623.792618	-456.786130	330.461479	618.659006	-424.310521	127.870778	565.598822	-458.269833	158.560609	564.522417	-377.921996	68.963173	605.910074	-418.554881	155.915692	325.636823	-390.038826	96.220907	410.010149	-464.170970	-219.380766	912.756571	-273.806276	-53.366460	79.494828	-474.944726	-53.364567	79.221061	-77.293113	
1752	8.7600	766.895504	1322.184916	-165.764435	744.387375	1357.255943	-467.334780	741.870447	1425.553212	-323.114665	691.934719	1269.522500	-323.805038	612.295994	1159.977909	45.798096	684.809946	966.084863	-52.655085	546.281649	1161.164653	-613.068823	667.541580	951.204672	-532.475506	149.372439	1237.951385	-337.806973	315.498157	1232.721787	-453.296944	282.265148	1236.145314	-176.491378	345.933038	1168.877325	-415.333843	310.681279	1170.722211	-199.495060	186.237025	1278.884070	-287.956551	200.358782	1280.218887	-374.683475	197.156197	1107.241369	-160.661269	249.729010	1132.898135	-495.596737	252.149047	998.020482	-135.798384	304.715110	926.654807	-127.348188	314.806236	839.273206	-132.254031	339.266198	940.564158	-131.381325	381.671520	705.342360	-143.934045	375.561470	696.879900	-250.686076	319.130916	615.122603	-115.289299	315.348011	526.726594	-122.908473	272.040014	452.903799	-123.881377	345.886701	519.512401	-145.516372	239.672218	322.238804	-130.375056	261.224792	342.083274	-208.997061	167.231088	304.810206	-176.662046	448.477887	211.022329	-153.898727	341.248632	216.184787	-94.399955	337.306261	1018.360079	-494.374222	407.916153	972.575796	-477.881733	431.102203	994.322336	-457.232942	447.710474	891.228395	-472.688026	503.456207	760.141234	-428.368437	470.760934	758.845054	-322.963199	389.293516	708.241072	-460.270437	323.796160	651.669652	-450.083971	237.421952	632.161139	-456.598415	337.613131	625.849447	-424.329484	134.228377	574.611241	-457.692147	164.800581	573.238330	-377.800339	75.004386	614.703321	-418.125510	162.641479	334.573804	-390.076012	102.887927	419.027285	-464.058088	-219.382628	912.756698	-273.815794	-53.355541	79.497471	-474.956831	-53.361332	79.198126	-77.307429	
1753	8.7650	766.145130	1324.979124	-166.963099	744.294483	1357.734003	-469.097782	741.232135	1426.811619	-324.951065	691.810865	1270.815127	-324.913983	612.706646	1161.516423	44.791312	685.251162	966.149975	-51.907130	546.082410	1160.738834	-613.984425	667.602401	951.334377	-532.668496	149.599517	1236.586675	-335.681242	314.532681	1233.193735	-452.352661	283.894809	1234.219291	-175.231488	345.587941	1169.439950	-414.956689	312.280373	1169.140227	-198.896063	186.630645	1276.868867	-285.392854	199.986749	1279.467424	-372.580369	197.884352	1104.494196	-160.679539	249.758288	1133.936948	-494.972192	250.129535	994.230790	-136.013203	300.513405	921.170387	-128.016392	307.897887	833.483971	-133.448451	335.432037	934.094438	-132.323159	372.158840	698.521088	-145.782595	364.517417	689.929325	-252.080875	310.504278	608.404482	-116.488030	307.132800	519.964048	-123.754337	264.327617	445.762676	-124.383149	337.549793	512.872727	-146.555028	233.409656	314.770812	-130.380351	254.820673	334.370865	-209.133981	161.055823	297.758942	-176.646749	441.709194	201.764676	-153.906820	334.532457	207.795849	-94.435225	339.212936	1021.292864	-494.350648	410.907564	977.090294	-478.414689	433.681325	999.270995	-457.685190	452.707351	896.616263	-473.388151	511.144222	766.896754	-429.115205	478.824593	765.136816	-323.785420	397.300942	715.179737	-460.260084	331.382341	659.080884	-450.061026	244.891231	640.797707	-456.873496	345.084799	633.226873	-424.305891	140.974265	583.189770	-457.103852	171.487410	581.616211	-376.966109	81.499123	623.024426	-417.684227	169.963782	343.512782	-390.831340	110.075839	427.594554	-463.926005	-219.402729	912.720001	-273.822003	-53.363337	79.477928	-474.947880	-53.375742	79.200817	-77.290874	
